<?xml version="1.0" standalone="no"?><svg xmlns="http://www.w3.org/2000/svg" viewBox="0 0 1440 320"><path fill="#0099ff" fill-opacity="1" d="M0,192L16,160C32,128,64,64,96,74.7C128,85,160,171,192,218.7C224,267,256,277,288,277.3C320,277,352,267,384,229.3C416,192,448,128,480,101.3C512,75,544,85,576,80C608,75,640,53,672,74.7C704,96,736,160,768,181.3C800,203,832,181,864,149.3C896,117,928,75,960,69.3C992,64,1024,96,1056,96C1088,96,1120,64,1152,85.3C1184,107,1216,181,1248,192C1280,203,1312,149,1344,149.3C1376,149,1408,203,1424,229.3L1440,256L1440,320L1424,320C1408,320,1376,320,1344,320C1312,320,1280,320,1248,320C1216,320,1184,320,1152,320C1120,320,1088,320,1056,320C1024,320,992,320,960,320C928,320,896,320,864,320C832,320,800,320,768,320C736,320,704,320,672,320C640,320,608,320,576,320C544,320,512,320,480,320C448,320,416,320,384,320C352,320,320,320,288,320C256,320,224,320,192,320C160,320,128,320,96,320C64,320,32,320,16,320L0,320Z"></path></svg>